# xmcd CD database file
#
# Track frame offsets:
#	150
#	10592
#	15550
#	24687
#	30637
#	39640
#	44615
#	53292
#	74557
#	79837
#	95190
#	108272
#	116392
#	125530
#	137490
#	145080
#	150107
#	161137
#	181302
#	219157
#	242295
#	256415
#
# Disc length: 3673 seconds
#
# Revision: 0
# Processed by: cddbd v1.5.1PL2 Copyright (c) Steve Scherf et al.
# Submitted via: CDex 1.51
#
DISCID=180e5716
DTITLE=Balthasar-Neumann Ensemble, Thomas Hengelbrock - From the Music Library of JS Bach [CD2]
DYEAR=2005
DGENRE=Baroque
TTITLE0=Pachelbel - Cantata for Easter Sunday - "Christ lag in Todesbanden" - Versus I
TTITLE1=Cantata for Easter Sunday - "Christ lag in Todesbanden" - Versus II
TTITLE2=Cantata for Easter Sunday - "Christ lag in Todesbanden" - Versus III
TTITLE3=Cantata for Easter Sunday - "Christ lag in Todesbanden" - Versus IV
TTITLE4=Cantata for Easter Sunday - "Christ lag in Todesbanden" - Versus V
TTITLE5=Cantata for Easter Sunday - "Christ lag in Todesbanden" - Versus VI
TTITLE6=Cantata for Easter Sunday - "Christ lag in Todesbanden" - Versus VII
TTITLE7=JS Bach (after Durante) - Kyrie in C minor BWV Anh. 26
TTITLE8=JS Bach - Cantata for Easter Sunday - "Christ lag in Todesbanden" - Sinfonia
TTITLE9=Cantata for Easter Sunday - "Christ lag in Todesbanden" - Versus I
TTITLE10=Cantata for Easter Sunday - "Christ lag in Todesbanden" - Versus II
TTITLE11=Cantata for Easter Sunday - "Christ lag in Todesbanden" - Versus III
TTITLE12=Cantata for Easter Sunday - "Christ lag in Todesbanden" - Versus IV
TTITLE13=Cantata for Easter Sunday - "Christ lag in Todesbanden" - Versus V
TTITLE14=Cantata for Easter Sunday - "Christ lag in Todesbanden" - Versus VI
TTITLE15=Cantata for Easter Sunday - "Christ lag in Todesbanden" - Versus VII
TTITLE16=Kerll - "Missa Superba" - Kyrie
TTITLE17="Missa Superba" - Gloria
TTITLE18="Missa Superba" - Credo
TTITLE19="Missa Superba" - Sanctus
TTITLE20="Missa Superba" - Agnus Dei
TTITLE21=Kerll - "Dominus regnavit"
EXTD=YEAR: 2005
EXTT0=
EXTT1=
EXTT2=
EXTT3=
EXTT4=
EXTT5=
EXTT6=
EXTT7=
EXTT8=
EXTT9=
EXTT10=
EXTT11=
EXTT12=
EXTT13=
EXTT14=
EXTT15=
EXTT16=
EXTT17=
EXTT18=
EXTT19=
EXTT20=
EXTT21=
PLAYORDER=
